<svg width="27" height="26" viewBox="0 0 27 26" fill="none" xmlns="http://www.w3.org/2000/svg">
<g id="construction 1">
<g id="g147">
<g id="g149">
<g id="Clip path group">
<mask id="mask0_3963_19728" style="mask-type:luminance" maskUnits="userSpaceOnUse" x="2" y="1" width="23" height="24">
<g id="clipPath155">
<path id="path153" d="M2.08337 1.75H24.5834V24.25H2.08337V1.75Z" fill="white"/>
</g>
</mask>
<g mask="url(#mask0_3963_19728)">
<g id="g151">
<path id="path157" d="M5.42322 2.40922H9.3783V23.5908H5.42322V2.40922Z" stroke="#E3F2FD" stroke-width="1.5" stroke-miterlimit="22.926" stroke-linecap="round" stroke-linejoin="round"/>
<g id="g159">
<path id="path161" d="M16.6292 5.0459L19.266 7.68262H2.7865V5.0459H16.6292Z" stroke="#E3F2FD" stroke-width="1.5" stroke-miterlimit="22.926" stroke-linecap="round" stroke-linejoin="round"/>
</g>
<g id="g163">
<path id="path165" d="M2.96228 23.5908H11.8392" stroke="#E3F2FD" stroke-width="1.5" stroke-miterlimit="22.926" stroke-linecap="round" stroke-linejoin="round"/>
</g>
</g>
</g>
</g>
</g>
<g id="g167">
<path id="path169" d="M19.266 7.72885V10.4072" stroke="#E3F2FD" stroke-width="1.5" stroke-miterlimit="22.926" stroke-linecap="round" stroke-linejoin="round"/>
</g>
<g id="g171">
<g id="Clip path group_2">
<mask id="mask1_3963_19728" style="mask-type:luminance" maskUnits="userSpaceOnUse" x="2" y="1" width="23" height="24">
<g id="clipPath177">
<path id="path175" d="M2.08337 1.75H24.5834V24.25H2.08337V1.75Z" fill="white"/>
</g>
</mask>
<g mask="url(#mask1_3963_19728)">
<g id="g173">
<g id="g179">
<path id="path181" d="M19.266 10.4072L21.5731 12.3848L23.8803 14.3623H19.266H14.6517L16.9589 12.3848L19.266 10.4072Z" stroke="#E3F2FD" stroke-width="1.5" stroke-miterlimit="22.926" stroke-linecap="round" stroke-linejoin="round"/>
</g>
<path id="path183" d="M15.3109 23.5908H23.2211V16.999H15.3109V23.5908Z" stroke="#E3F2FD" stroke-width="1.5" stroke-miterlimit="22.926" stroke-linecap="round" stroke-linejoin="round"/>
<path id="path185" d="M17.9476 23.5908H20.5844V19.6357H17.9476V23.5908Z" stroke="#E3F2FD" stroke-width="1.5" stroke-miterlimit="22.926" stroke-linecap="round" stroke-linejoin="round"/>
<g id="g187">
<path id="path189" d="M5.5888 7.94287L9.3471 11.7451L5.46716 15.6689L9.24646 19.4482L5.42322 23.2715" stroke="#E3F2FD" stroke-width="1.5" stroke-miterlimit="22.926" stroke-linecap="round" stroke-linejoin="round"/>
</g>
</g>
</g>
</g>
</g>
</g>
</g>
</svg>
